<?xml version="1.0" encoding="utf-8"?>
<!-- Generator: Adobe Illustrator 24.3.0, SVG Export Plug-In . SVG Version: 6.00 Build 0)  -->
<svg version="1.1" id="Calque_1" xmlns="http://www.w3.org/2000/svg" xmlns:xlink="http://www.w3.org/1999/xlink" x="0px" y="0px"
	 viewBox="0 0 15.6 15.6" style="enable-background:new 0 0 15.6 15.6;" xml:space="preserve">
<style type="text/css">
	.st0{fill:#C94925;stroke:#C94925;stroke-width:0.25;stroke-miterlimit:10;}
</style>
<g>
	<path class="st0" d="M9,9.5C8.2,9.8,7.4,9.8,6.6,9.6c-0.5,1-1.4,1.5-2.4,1.9c-0.6,0.2-1.2,0.4-1.8,0.6c-0.8,0.2-1.2,0.7-1.3,1.5
		c0,0.3,0,0.6,0,0.8c0,0.1,0,0.2-0.2,0.3c-0.1,0-0.2-0.1-0.2-0.2c0-0.6,0-1.1,0.2-1.6c0.2-0.6,0.7-0.9,1.3-1.1
		c0.9-0.2,1.8-0.5,2.6-0.9c0.4-0.2,0.7-0.5,1-0.7C6,9.8,6,9.6,6.1,9.5c0,0,0-0.1,0-0.1C5.2,8.8,4.8,8.1,4.5,7.2
		C4.3,6.3,4.2,5.4,4.3,4.5c0-0.5,0.1-1,0.3-1.4C5,1.9,5.9,1.2,7.2,1C7.7,0.9,8.3,1,8.8,1.1C10,1.5,10.7,2.2,11,3.4
		c0.3,1.4,0.3,2.8-0.2,4.2c-0.2,0.7-0.7,1.3-1.3,1.7c-0.1,0.1-0.1,0.1,0,0.2c0.2,0.2,0.3,0.5,0.5,0.7c0.5,0.5,1.2,0.8,1.8,1
		c0.5,0.2,0.9,0.3,1.4,0.5c1,0.3,1.5,0.8,1.6,1.8c0,0.3,0,0.7,0,1c0,0.1-0.1,0.2-0.2,0.2c-0.1,0-0.2-0.1-0.2-0.2
		c0-0.4,0-0.8-0.1-1.2c-0.1-0.6-0.5-1-1.1-1.2c-0.9-0.2-1.7-0.5-2.5-0.9c-0.2-0.1-0.3-0.2-0.5-0.3C9.6,10.4,9.3,10.1,9,9.5z
		 M10.8,5.2c0-0.5-0.1-0.9-0.1-1.4c-0.2-1.1-0.8-1.9-1.9-2.2c-0.5-0.2-1-0.2-1.5-0.1C6.1,1.6,5.4,2.2,5,3.3C4.8,3.8,4.7,4.4,4.7,4.9
		c0,0.9,0.1,1.8,0.4,2.6c0.3,0.7,0.7,1.3,1.4,1.6c1.5,0.7,3.2,0,3.8-1.5C10.7,6.8,10.8,6,10.8,5.2z"/>
</g>
</svg>
