<?xml version="1.0" encoding="utf-8"?>
<!-- Generator: Adobe Illustrator 24.3.0, SVG Export Plug-In . SVG Version: 6.00 Build 0)  -->
<svg version="1.1" id="Calque_1" xmlns="http://www.w3.org/2000/svg" xmlns:xlink="http://www.w3.org/1999/xlink" x="0px" y="0px"
	 viewBox="0 0 15.6 15.6" style="enable-background:new 0 0 15.6 15.6;" xml:space="preserve">
<style type="text/css">
	.st0{fill:#C94925;}
</style>
<g>
	<path class="st0" d="M7.5,11.5c0,0.1,0,0.3,0,0.4c0,0.5,0,1,0,1.5c0,0.4-0.2,0.5-0.5,0.3c-1.2-0.7-2.5-1.4-3.7-2.1
		c-0.1,0-0.2-0.1-0.3-0.1c-0.7,0-1.3,0-2,0c-0.3,0-0.4-0.1-0.4-0.4c0-3,0-6,0-8.9c0-0.3,0.1-0.4,0.4-0.4c4.5,0,9,0,13.5,0
		c0.3,0,0.4,0.1,0.4,0.4c0,3,0,6,0,8.9c0,0.3-0.1,0.4-0.4,0.4c-2.3,0-4.5,0-6.8,0C7.6,11.5,7.6,11.5,7.5,11.5z M14.3,2.4
		c-4.4,0-8.7,0-13,0c0,2.8,0,5.7,0,8.5c0.6,0,1.2,0,1.8,0c0.1,0,0.3,0,0.4,0.1c1.1,0.6,2.2,1.2,3.3,1.9c0,0,0.1,0,0.2,0.1
		c0-0.1,0-0.1,0-0.2c0-0.5,0-1,0-1.5c0-0.3,0.1-0.4,0.4-0.4c2.3,0,4.5,0,6.8,0c0.1,0,0.1,0,0.2,0C14.3,8.1,14.3,5.3,14.3,2.4z"/>
</g>
</svg>
