<?xml version="1.0" encoding="utf-8"?>
<!-- Generator: Adobe Illustrator 24.3.0, SVG Export Plug-In . SVG Version: 6.00 Build 0)  -->
<svg version="1.1" id="Calque_1" xmlns="http://www.w3.org/2000/svg" xmlns:xlink="http://www.w3.org/1999/xlink" x="0px" y="0px"
	 viewBox="0 0 15.6 15.6" style="enable-background:new 0 0 15.6 15.6;" xml:space="preserve">
<style type="text/css">
	.st0{fill:#C94925;}
</style>
<g>
	<path class="st0" d="M0.7,2.3c0.6,0,1.1,0,1.7,0c0-0.5,0-1,0-1.5c0.8,0,1.5,0,2.3,0c0,0.5,0,1,0,1.5c2.1,0,4.3,0,6.4,0
		c0-0.5,0-1,0-1.5c0.8,0,1.5,0,2.3,0c0,0.5,0,1,0,1.5c0.5,0,1,0,1.6,0c0,0.1,0,0.1,0,0.2c0,3.6,0,7.1,0,10.7c0,0.9-0.6,1.6-1.5,1.8
		c-0.1,0-0.3,0-0.4,0c-3.5,0-7,0-10.5,0c-0.9,0-1.6-0.6-1.8-1.4c0-0.1,0-0.3,0-0.4c0-3.6,0-7.1,0-10.7C0.7,2.4,0.7,2.3,0.7,2.3z
		 M14.3,5.9c-4.3,0-8.6,0-13,0c0,0.1,0,0.1,0,0.1c0,2.3,0,4.7,0,7c0,0.7,0.5,1.2,1.2,1.2c3.5,0,7,0,10.5,0c0.7,0,1.2-0.5,1.2-1.2
		c0-2.3,0-4.7,0-7C14.3,6,14.3,6,14.3,5.9z M1.3,5.3c4.3,0,8.6,0,13,0c0-0.8,0-1.6,0-2.4c-0.3,0-0.6,0-1,0c0,0.5,0,0.9,0,1.4
		c-0.8,0-1.5,0-2.3,0c0-0.5,0-0.9,0-1.4c-2.1,0-4.3,0-6.4,0c0,0.5,0,0.9,0,1.4c-0.8,0-1.5,0-2.3,0c0-0.5,0-0.9,0-1.4
		c-0.4,0-0.7,0-1,0C1.3,3.7,1.3,4.5,1.3,5.3z M3,3.7c0.4,0,0.7,0,1,0c0-0.8,0-1.6,0-2.4c-0.4,0-0.7,0-1,0C3,2.1,3,2.9,3,3.7z
		 M12.7,1.3c-0.4,0-0.7,0-1,0c0,0.8,0,1.6,0,2.3c0.4,0,0.7,0,1,0C12.7,2.9,12.7,2.1,12.7,1.3z"/>
</g>
</svg>
