<?xml version="1.0" encoding="utf-8"?>
<!-- Generator: Adobe Illustrator 24.3.0, SVG Export Plug-In . SVG Version: 6.00 Build 0)  -->
<svg version="1.1" id="Calque_1" xmlns="http://www.w3.org/2000/svg" xmlns:xlink="http://www.w3.org/1999/xlink" x="0px" y="0px"
	 viewBox="0 0 15.6 15.6" style="enable-background:new 0 0 15.6 15.6;" xml:space="preserve">
<style type="text/css">
	.st0{fill:#C94925;}
</style>
<g>
	<path class="st0" d="M7.8,14.9C7.8,14.9,7.8,14.8,7.8,14.9c-1.4-2-2.7-4.1-3.7-6.2C3.7,7.9,3.4,7.2,3.2,6.4c-0.3-1-0.1-2,0.4-3
		C4.3,1.9,5.5,1,7.1,0.8c2.5-0.4,5,1.3,5.4,3.8c0.2,0.9,0,1.7-0.3,2.5c-0.4,1.2-1,2.4-1.7,3.5C9.7,12,8.8,13.4,7.8,14.9
		C7.9,14.8,7.8,14.8,7.8,14.9z M7.8,13.8C7.8,13.8,7.9,13.8,7.8,13.8c1-1.4,1.8-2.8,2.6-4.2c0.5-0.9,0.9-1.8,1.3-2.8
		C12,6,12.1,5.2,11.8,4.4c-0.5-1.7-1.6-2.7-3.3-3C6.8,1.1,5.4,1.7,4.4,3.1C3.7,4,3.5,5.1,3.7,6.2c0.2,0.8,0.5,1.5,0.8,2.2
		C5.5,10.2,6.6,12,7.8,13.8C7.8,13.8,7.8,13.8,7.8,13.8z"/>
	<path class="st0" d="M7.8,8.1C6.3,8.1,5,6.9,5,5.3c0-1.5,1.2-2.8,2.8-2.8c1.5,0,2.8,1.3,2.8,2.8C10.6,6.9,9.4,8.1,7.8,8.1z
		 M7.8,7.5c1.2,0,2.2-1,2.2-2.1c0-1.2-1-2.2-2.1-2.2c-1.2,0-2.2,1-2.2,2.1C5.7,6.5,6.6,7.5,7.8,7.5z"/>
</g>
</svg>
